<?xml version="1.0" encoding="UTF-8" standalone="no"?>
<svg
   xmlns:dc="http://purl.org/dc/elements/1.1/"
   xmlns:cc="http://creativecommons.org/ns#"
   xmlns:rdf="http://www.w3.org/1999/02/22-rdf-syntax-ns#"
   xmlns:svg="http://www.w3.org/2000/svg"
   xmlns="http://www.w3.org/2000/svg"
   xmlns:sodipodi="http://sodipodi.sourceforge.net/DTD/sodipodi-0.dtd"
   xmlns:inkscape="http://www.inkscape.org/namespaces/inkscape"
   version="1.1"
   x="0px"
   y="0px"
   viewBox="0 0 97 153"
   enable-background="new 0 0 208 176"
   xml:space="preserve"
   id="svg42"
   sodipodi:docname="noun_augmented.svg"
   width="97"
   height="153"
   inkscape:version="0.92.1 r15371"><metadata
     id="metadata48"><rdf:RDF><cc:Work
         rdf:about=""><dc:format>image/svg+xml</dc:format><dc:type
           rdf:resource="http://purl.org/dc/dcmitype/StillImage" /><dc:title></dc:title></cc:Work></rdf:RDF></metadata><defs
     id="defs46" /><sodipodi:namedview
     pagecolor="#ffffff"
     bordercolor="#666666"
     borderopacity="1"
     objecttolerance="10"
     gridtolerance="10"
     guidetolerance="10"
     inkscape:pageopacity="0"
     inkscape:pageshadow="2"
     inkscape:window-width="1858"
     inkscape:window-height="1057"
     id="namedview44"
     showgrid="false"
     inkscape:zoom="3.0341309"
     inkscape:cx="12.149542"
     inkscape:cy="110.77338"
     inkscape:window-x="54"
     inkscape:window-y="-8"
     inkscape:window-maximized="1"
     inkscape:current-layer="svg42" /><g
     id="g36"
     transform="translate(-57.671875,-17.67773)"
     style="fill:#efe1b8;fill-opacity:1"><g
       id="g4"
       style="fill:#efe1b8;fill-opacity:1"><path
         d="M 73.334473,128.12012 V 48.501465 h 8.666992 l 9.642578,5.968261 0.136719,18.219239 V 118.30273 Z M 74.90625,50.073242 v 75.429688 l 15.302246,-8.14355 V 72.695312 L 90.078613,55.349609 81.555664,50.073242 Z"
         id="path2"
         inkscape:connector-curvature="0"
         style="fill:#efe1b8;fill-opacity:1" /></g><g
       id="g8"
       style="fill:#efe1b8;fill-opacity:1"><path
         d="M 92.196289,118.08105 V 72.328613 l 8.100591,3.242676 v 38.198241 z m 1.571777,-43.429195 v 40.812985 l 4.956543,-2.63867 V 76.635254 Z"
         id="path6"
         inkscape:connector-curvature="0"
         style="fill:#efe1b8;fill-opacity:1" /></g><g
       id="g12"
       style="fill:#efe1b8;fill-opacity:1"><path
         d="M 65.541016,132.27344 V 37.928711 l 7.507324,2.580566 0.05713,87.710453 z m 1.572265,-92.142581 v 89.515621 l 4.419922,-2.36816 -0.05713,-85.647461 z"
         id="path10"
         inkscape:connector-curvature="0"
         style="fill:#efe1b8;fill-opacity:1" /></g><g
       id="g20"
       style="fill:#efe1b8;fill-opacity:1"><path
         d="m 137.9873,128.12012 -18.44726,-9.81739 0.13476,-63.83105 9.64454,-5.970215 h 8.66796 z m -16.87304,-10.76074 15.30078,8.14355 V 50.073242 h -6.64942 l -8.51953,5.274414 z"
         id="path18"
         inkscape:connector-curvature="0"
         style="fill:#efe1b8;fill-opacity:1" /></g><g
       id="g24"
       style="fill:#efe1b8;fill-opacity:1"><path
         d="m 119.125,118.08105 -8.10059,-4.31152 V 75.571289 l 8.10059,-3.242676 z m -6.52832,-5.25488 4.95605,2.63867 V 74.651855 l -4.95605,1.983399 z"
         id="path22"
         inkscape:connector-curvature="0"
         style="fill:#efe1b8;fill-opacity:1" /></g><g
       id="g28"
       style="fill:#efe1b8;fill-opacity:1"><path
         d="m 145.7793,132.27344 -7.56348,-4.05371 0.0576,-87.710453 7.50586,-2.580566 z m -5.99121,-4.99512 4.42089,2.36816 V 40.130859 l -4.36425,1.5 z"
         id="path26"
         inkscape:connector-curvature="0"
         style="fill:#efe1b8;fill-opacity:1" /></g><path
       d="M 139.33301,19.163086 H 72.194336 c -7.056152,0 -12.948731,5.061523 -14.248047,11.743652 -0.175781,0.900879 -0.274414,1.828613 -0.274414,2.779297 V 156.15527 c 0,8.00684 6.51416,14.52246 14.522461,14.52246 h 67.138674 c 8.00879,0 14.52246,-6.51562 14.52246,-14.52246 V 33.686035 c 0,-8.007812 -6.51367,-14.522949 -14.52246,-14.522949 z M 105.76465,166.11426 c -3.44434,0 -6.235841,-2.79199 -6.235841,-6.23828 0,-3.44239 2.791501,-6.2334 6.235841,-6.2334 3.44238,0 6.23437,2.79101 6.23437,6.2334 0,3.44629 -2.79199,6.23828 -6.23437,6.23828 z m 41.53418,-16.76953 H 64.230957 V 38.30957 33.686035 c 0,-4.397949 3.56543,-7.962891 7.963379,-7.962891 h 67.138674 c 4.40039,0 7.96582,3.564942 7.96582,7.962891 z"
       id="path34"
       inkscape:connector-curvature="0"
       style="fill:#efe1b8;fill-opacity:1" /></g></svg>