<?xml version="1.0" encoding="UTF-8" standalone="no"?>
<svg
   xmlns:dc="http://purl.org/dc/elements/1.1/"
   xmlns:cc="http://creativecommons.org/ns#"
   xmlns:rdf="http://www.w3.org/1999/02/22-rdf-syntax-ns#"
   xmlns:svg="http://www.w3.org/2000/svg"
   xmlns="http://www.w3.org/2000/svg"
   xmlns:sodipodi="http://sodipodi.sourceforge.net/DTD/sodipodi-0.dtd"
   xmlns:inkscape="http://www.inkscape.org/namespaces/inkscape"
   version="1.1"
   x="0px"
   y="0px"
   viewBox="0 0 85 92"
   enable-background="new 0 0 100 100"
   xml:space="preserve"
   id="svg22"
   sodipodi:docname="noun_agenda.svg"
   width="85"
   height="92"
   inkscape:version="0.92.1 r15371"><metadata
     id="metadata28"><rdf:RDF><cc:Work
         rdf:about=""><dc:format>image/svg+xml</dc:format><dc:type
           rdf:resource="http://purl.org/dc/dcmitype/StillImage" /><dc:title /></cc:Work></rdf:RDF></metadata><defs
     id="defs26" /><sodipodi:namedview
     pagecolor="#ffffff"
     bordercolor="#666666"
     borderopacity="1"
     objecttolerance="10"
     gridtolerance="10"
     guidetolerance="10"
     inkscape:pageopacity="0"
     inkscape:pageshadow="2"
     inkscape:window-width="1858"
     inkscape:window-height="1057"
     id="namedview24"
     showgrid="false"
     inkscape:zoom="1.888"
     inkscape:cx="-122.13983"
     inkscape:cy="62.5"
     inkscape:window-x="1912"
     inkscape:window-y="-8"
     inkscape:window-maximized="1"
     inkscape:current-layer="svg22" /><g
     id="g16"
     transform="matrix(0.82109815,0,0,0.82109815,1.4450925,13.995676)"
     style="fill:#efe1b8;fill-opacity:1"><path
       d="m 55.3,30.3 c -9.2,0 -16.7,7.5 -16.7,16.7 0,9.2 7.5,16.7 16.7,16.7 C 64.5,63.7 72,56.3 72,47.1 72,37.8 64.5,30.3 55.3,30.3 Z m 9.3,26.1 c -0.3,0.3 -0.8,0.5 -1.2,0.5 -0.5,0 -0.9,-0.2 -1.2,-0.5 L 54.1,48.3 C 53.8,48 53.6,47.5 53.6,47.1 v -8.3 c 0,-1 0.8,-1.8 1.8,-1.8 1,0 1.8,0.8 1.8,1.8 v 7.5 l 7.5,7.5 c 0.6,0.8 0.6,1.9 -0.1,2.6 z"
       id="path2"
       inkscape:connector-curvature="0"
       style="fill:#efe1b8;fill-opacity:1" /><path
       d="m 86.4,10.9 v 74 c 0,3.6 -3,6.6 -6.6,6.6 H 22.2 c 0.4,2 2.1,3.5 4.2,3.5 h 56.5 c 4,0 7.2,-3.2 7.2,-7.2 V 15.1 C 90,13 88.5,11.2 86.4,10.9 Z"
       id="path4"
       inkscape:connector-curvature="0"
       style="fill:#efe1b8;fill-opacity:1" /><path
       d="m 11.8,21.7 h 11.3 c 1,0 1.9,-0.8 1.9,-1.9 0,-1 -0.8,-1.9 -1.9,-1.9 H 11.8 c -1,0 -1.9,0.8 -1.9,1.9 0.1,1.1 0.9,1.9 1.9,1.9 z"
       id="path6"
       inkscape:connector-curvature="0"
       style="fill:#efe1b8;fill-opacity:1" /><path
       d="m 11.8,39.6 h 11.3 c 1,0 1.9,-0.8 1.9,-1.9 0,-1 -0.8,-1.9 -1.9,-1.9 H 11.8 c -1,0 -1.9,0.8 -1.9,1.9 0.1,1.1 0.9,1.9 1.9,1.9 z"
       id="path8"
       inkscape:connector-curvature="0"
       style="fill:#efe1b8;fill-opacity:1" /><path
       d="m 11.8,57.5 h 11.3 c 1,0 1.9,-0.8 1.9,-1.9 0,-1 -0.8,-1.9 -1.9,-1.9 H 11.8 c -1,0 -1.9,0.8 -1.9,1.9 0.1,1.1 0.9,1.9 1.9,1.9 z"
       id="path10"
       inkscape:connector-curvature="0"
       style="fill:#efe1b8;fill-opacity:1" /><path
       d="m 25,73.5 c 0,-1 -0.8,-1.9 -1.9,-1.9 H 11.8 c -1,0 -1.9,0.8 -1.9,1.9 0,1 0.8,1.9 1.9,1.9 h 11.3 c 1.1,0 1.9,-0.8 1.9,-1.9 z"
       id="path12"
       inkscape:connector-curvature="0"
       style="fill:#efe1b8;fill-opacity:1" /><path
       d="M 84.1,84.9 V 9.3 C 84.1,7 82.2,5 79.8,5 H 20.4 c -2.3,0 -4.3,1.9 -4.3,4.3 v 6.4 H 20 c 0.1,-0.6 0.7,-1.1 1.4,-1.1 h 5.4 c 0.8,0 1.4,0.6 1.4,1.4 v 8 c 0,0.8 -0.6,1.4 -1.4,1.4 H 21.4 C 20.6,25.4 20,24.8 20,24.1 h -3.8 v 9.5 H 20 c 0.1,-0.6 0.7,-1.1 1.4,-1.1 h 5.4 c 0.8,0 1.4,0.6 1.4,1.4 v 8.2 c 0,0.8 -0.6,1.4 -1.4,1.4 H 21.4 C 20.6,43.5 20,42.9 20,42.2 h -3.8 v 9.5 H 20 c 0.1,-0.6 0.7,-1.1 1.4,-1.1 h 5.4 c 0.8,0 1.4,0.6 1.4,1.4 v 8.2 c 0,0.8 -0.6,1.4 -1.4,1.4 H 21.4 C 20.6,61.6 20,61 20,60.3 h -3.8 v 9.5 H 20 c 0.1,-0.6 0.7,-1.1 1.4,-1.1 h 5.4 c 0.8,0 1.4,0.6 1.4,1.4 v 8.2 c 0,0.8 -0.6,1.4 -1.4,1.4 H 21.4 C 20.6,79.7 20,79.1 20,78.4 h -3.8 v 7.1 c 0,2.3 1.9,4.3 4.3,4.3 h 59.4 c 2.3,-0.7 4.2,-2.6 4.2,-4.9 z M 55.3,67.3 C 44.1,67.3 35,58.2 35,47.1 35,35.9 44.1,26.8 55.3,26.8 c 11.2,0 20.3,9.1 20.3,20.3 0,11.1 -9.1,20.2 -20.3,20.2 z"
       id="path14"
       inkscape:connector-curvature="0"
       style="fill:#efe1b8;fill-opacity:1" /></g></svg>