<?xml version="1.0" encoding="UTF-8" standalone="no"?>
<svg
   xmlns:dc="http://purl.org/dc/elements/1.1/"
   xmlns:cc="http://creativecommons.org/ns#"
   xmlns:rdf="http://www.w3.org/1999/02/22-rdf-syntax-ns#"
   xmlns:svg="http://www.w3.org/2000/svg"
   xmlns="http://www.w3.org/2000/svg"
   xmlns:sodipodi="http://sodipodi.sourceforge.net/DTD/sodipodi-0.dtd"
   xmlns:inkscape="http://www.inkscape.org/namespaces/inkscape"
   viewBox="0 0 42 41"
   x="0px"
   y="0px"
   version="1.1"
   id="svg24"
   sodipodi:docname="noun_about.svg"
   width="42"
   height="41"
   inkscape:version="0.92.1 r15371">
  <metadata
     id="metadata28">
    <rdf:RDF>
      <cc:Work
         rdf:about="">
        <dc:format>image/svg+xml</dc:format>
        <dc:type
           rdf:resource="http://purl.org/dc/dcmitype/StillImage" />
        <dc:title>Info</dc:title>
      </cc:Work>
    </rdf:RDF>
  </metadata>
  <sodipodi:namedview
     pagecolor="#ffffff"
     bordercolor="#666666"
     borderopacity="1"
     objecttolerance="10"
     gridtolerance="10"
     guidetolerance="10"
     inkscape:pageopacity="0"
     inkscape:pageshadow="2"
     inkscape:window-width="927"
     inkscape:window-height="1048"
     id="namedview26"
     showgrid="false"
     inkscape:zoom="11.916667"
     inkscape:cx="24"
     inkscape:cy="23.286713"
     inkscape:window-x="2842"
     inkscape:window-y="0"
     inkscape:window-maximized="0"
     inkscape:current-layer="svg24" />
  <defs
     id="defs4">
    <style
       id="style2">.cls-1{fill:none;}</style>
  </defs>
  <title
     id="title6">Info</title>
  <g
     data-name="Bouding Box"
     id="g10"
     transform="translate(0,-19)">
    <rect
       class="cls-1"
       width="48"
       height="48"
       id="rect8"
       x="0"
       y="0"
       style="fill:none" />
  </g>
  <g
     id="g18"
     transform="matrix(0.7838983,0,0,0.7838983,2.1864407,6.5084748)"
     style="fill:#efe1b8;fill-opacity:1">
    <path
       d="M 24,4 A 20,20 0 1 0 44,24 20,20 0 0 0 24,4 Z m 0,37 A 17,17 0 1 1 41,24 17,17 0 0 1 24,41 Z"
       id="path12"
       inkscape:connector-curvature="0"
       style="fill:#efe1b8;fill-opacity:1" />
    <path
       d="m 24,23 a 2,2 0 0 0 -2,2 v 7 a 2,2 0 0 0 4,0 v -7 a 2,2 0 0 0 -2,-2 z"
       id="path14"
       inkscape:connector-curvature="0"
       style="fill:#efe1b8;fill-opacity:1" />
    <path
       d="m 24,14 a 3,3 0 1 0 3,3 3,3 0 0 0 -3,-3 z"
       id="path16"
       inkscape:connector-curvature="0"
       style="fill:#efe1b8;fill-opacity:1" />
  </g>
</svg>
