<?xml version="1.0" encoding="UTF-8" standalone="no"?>
<svg
   xmlns:dc="http://purl.org/dc/elements/1.1/"
   xmlns:cc="http://creativecommons.org/ns#"
   xmlns:rdf="http://www.w3.org/1999/02/22-rdf-syntax-ns#"
   xmlns:svg="http://www.w3.org/2000/svg"
   xmlns="http://www.w3.org/2000/svg"
   xmlns:sodipodi="http://sodipodi.sourceforge.net/DTD/sodipodi-0.dtd"
   xmlns:inkscape="http://www.inkscape.org/namespaces/inkscape"
   data-name="Layer 1"
   viewBox="0 0 90.794624 97.998894"
   x="0px"
   y="0px"
   version="1.1"
   id="svg10"
   sodipodi:docname="noun_Checklist_810246.svg"
   width="90.794624"
   height="97.998894"
   inkscape:version="0.92.1 r15371">
  <metadata
     id="metadata16">
    <rdf:RDF>
      <cc:Work
         rdf:about="">
        <dc:format>image/svg+xml</dc:format>
        <dc:type
           rdf:resource="http://purl.org/dc/dcmitype/StillImage" />
        <dc:title>Artboard 4</dc:title>
      </cc:Work>
    </rdf:RDF>
  </metadata>
  <defs
     id="defs14" />
  <sodipodi:namedview
     pagecolor="#ffffff"
     bordercolor="#666666"
     borderopacity="1"
     objecttolerance="10"
     gridtolerance="10"
     guidetolerance="10"
     inkscape:pageopacity="0"
     inkscape:pageshadow="2"
     inkscape:window-width="1857"
     inkscape:window-height="1057"
     id="namedview12"
     showgrid="false"
     fit-margin-top="0"
     fit-margin-left="0"
     fit-margin-right="0"
     fit-margin-bottom="0"
     inkscape:zoom="5.3400704"
     inkscape:cx="-37.771234"
     inkscape:cy="31.545403"
     inkscape:window-x="55"
     inkscape:window-y="-8"
     inkscape:window-maximized="1"
     inkscape:current-layer="svg10" />
  <title
     id="title2">Artboard 4</title>
  <path
     d="m 1.2157168,48.378722 a 4.1507168,4.1507168 0 0 1 5.87,-5.87 l 1.72,1.72 7.2000002,-7.2 a 4.1507168,4.1507168 0 0 1 5.87,5.87 l -7.2,7.2 -2.93,2.9 a 4.15,4.15 0 0 1 -5.8700002,0 l -2.94,-2.9 z m 1.72,-23.38 2.94,2.94 a 4.15,4.15 0 0 0 5.8700002,0 l 2.93,-2.94 7.2,-7.2 a 4.1507168,4.1507168 0 0 0 -5.87,-5.87 l -7.2000002,7.2 -1.72,-1.72 a 4.1507168,4.1507168 0 0 0 -5.87,5.87 z m 0,50.25 2.94,2.94 a 4.15,4.15 0 0 0 5.8700002,0 l 2.94,-2.94 7.2,-7.2 a 4.1507168,4.1507168 0 0 0 -5.87,-5.87 l -7.2000002,7.2 -1.72,-1.72 a 4.1507168,4.1507168 0 0 0 -5.87,5.87 z m 30.0000002,-51.35 h 20.73 l 1.73,-7.96 h -22.45 a 4,4 0 1 0 0,7.93 z m 0,25.13 h 15.2 l 1.75,-7.93 h -16.94 a 4,4 0 1 0 0,7.93 z m 0,25.13 h 9.76 a 15.77,15.77 0 0 1 0.27,-1.64 l 1.39,-6.29 h -11.41 a 4,4 0 1 0 0,7.93 z m 57.67,-63 -15.1,68.5 a 8.19,8.19 0 0 1 -1.85,3.64 l -11.88,13.51 a 3.51,3.51 0 0 1 -3.38,1.11 v 0 a 3.51,3.51 0 0 1 -2.61,-2.43 l -5.14,-17.26 a 8.2,8.2 0 0 1 -0.15,-4.08 l 15.1,-68.5100001 a 7.18,7.18 0 0 1 8.56,-5.46999997 l 11,2.41999997 a 7.19,7.19 0 0 1 5.47,8.5700001 z m -20.55,66 a 52,52 0 0 1 -13.59,-3 l -0.3,1.34 a 2.25,2.25 0 0 0 0.23,1.5 l 2.39,8 4.61,1 5.88,-6.67 a 2.3,2.3 0 0 0 0.52,-1 z"
     id="path4"
     style="fill:#efe1b8;fill-opacity:1"
     inkscape:connector-curvature="0" />
</svg>
