<?xml version="1.0" encoding="UTF-8" standalone="no"?>
<svg
   xmlns:dc="http://purl.org/dc/elements/1.1/"
   xmlns:cc="http://creativecommons.org/ns#"
   xmlns:rdf="http://www.w3.org/1999/02/22-rdf-syntax-ns#"
   xmlns:svg="http://www.w3.org/2000/svg"
   xmlns="http://www.w3.org/2000/svg"
   xmlns:sodipodi="http://sodipodi.sourceforge.net/DTD/sodipodi-0.dtd"
   xmlns:inkscape="http://www.inkscape.org/namespaces/inkscape"
   version="1.1"
   x="0px"
   y="0px"
   viewBox="0 0 90 87.5"
   xml:space="preserve"
   id="svg8"
   sodipodi:docname="noun_committee.svg"
   width="90"
   height="87.5"
   inkscape:version="0.92.1 r15371"><metadata
     id="metadata14"><rdf:RDF><cc:Work
         rdf:about=""><dc:format>image/svg+xml</dc:format><dc:type
           rdf:resource="http://purl.org/dc/dcmitype/StillImage" /><dc:title></dc:title></cc:Work></rdf:RDF></metadata><defs
     id="defs12" /><sodipodi:namedview
     pagecolor="#ffffff"
     bordercolor="#666666"
     borderopacity="1"
     objecttolerance="10"
     gridtolerance="10"
     guidetolerance="10"
     inkscape:pageopacity="0"
     inkscape:pageshadow="2"
     inkscape:window-width="1857"
     inkscape:window-height="1057"
     id="namedview10"
     showgrid="false"
     fit-margin-top="0"
     fit-margin-left="0"
     fit-margin-right="0"
     fit-margin-bottom="0"
     inkscape:zoom="3.776"
     inkscape:cx="60.825371"
     inkscape:cy="21.821943"
     inkscape:window-x="55"
     inkscape:window-y="-8"
     inkscape:window-maximized="1"
     inkscape:current-layer="svg8" /><path
     d="m 63.1,7.1 c 0,-2.8 2.3,-5.1 5.1,-5.1 2.8,0 5.1,2.3 5.1,5.1 0,2.8 -2.3,5.1 -5.1,5.1 -2.8,0 -5.1,-2.3 -5.1,-5.1 z m -17.5,3.1 c 2.8,0 5.1,-2.3 5.1,-5.1 0,-2.8 -2.3,-5.1 -5.1,-5.1 -2.8,0 -5.1,2.3 -5.1,5.1 0,2.8 2.2,5.1 5.1,5.1 z m -23.8,2 c 2.8,0 5.1,-2.3 5.1,-5.1 C 26.9,4.3 24.6,2 21.8,2 19,2 16.7,4.3 16.7,7.1 c 0,2.8 2.3,5.1 5.1,5.1 z M 90,46.5 c 0,4.3 -3.5,8.3 -9.9,11.4 v -2.2 c 5.1,-2.7 7.9,-6 7.9,-9.2 0,-4.1 -4.5,-8.2 -12.3,-11.2 -8.2,-3.2 -19.1,-5 -30.8,-5 -11.7,0 -22.6,1.8 -30.8,5 C 6.4,38.4 2,42.4 2,46.5 2,49.8 4.8,53 9.9,55.7 v 2.2 C 3.5,54.8 0,50.8 0,46.5 c 0,-5 4.8,-9.6 13.5,-13 0.6,-0.2 1.1,-0.4 1.7,-0.6 v -5.6 -6.1 h -0.6 v 10 c 0,0.9 -0.7,1.6 -1.6,1.6 h -0.1 c -0.9,0 -1.6,-0.7 -1.6,-1.6 V 18.8 c 0,-3.3 2.7,-6 6,-6 h 9.1 c 3.3,0 6,2.7 6,6 v 10.3 c 0.9,-0.1 1.8,-0.2 2.8,-0.3 v -12 c 0,-3.3 2.7,-6 6,-6 h 9.1 c 3.3,0 6,2.7 6,6 v 12.1 c 0.6,0.1 1.1,0.1 1.6,0.2 V 18.8 c 0,-3.3 2.7,-6 6,-6 H 73 c 3.3,0 6,2.7 6,6 v 12.4 c 0,0.9 -0.7,1.6 -1.6,1.6 h -0.1 c -0.9,0 -1.6,-0.7 -1.6,-1.6 v -10 h -0.6 v 6.1 5.6 c 0.6,0.2 1.2,0.4 1.7,0.6 8.4,3.4 13.2,8 13.2,13 z M 61,29.6 c 0.2,0 0.4,0.1 0.6,0.1 V 27.3 21.2 H 61 Z m -8.9,-4.4 v 3.4 c 0.2,0 0.4,0 0.6,0 v -9.5 h -0.6 z m -13.7,3.4 c 0.2,0 0.4,0 0.6,0 v -3.3 -6.1 h -0.6 z m -10,1.1 c 0.2,0 0.4,-0.1 0.6,-0.1 v -8.4 h -0.6 v 6.1 z m -2.1,17.1 h -9.1 c -3.3,0 -6,2.7 -6,6 v 12.4 c 0,0.9 0.7,1.6 1.6,1.6 h 0.1 c 0.9,0 1.6,-0.7 1.6,-1.6 v -10 h 0.6 v 6.1 10.7 8.4 c 0,0.9 0.7,1.6 1.6,1.6 h 1.7 C 19.3,82 20,81.3 20,80.4 V 68.8 h 3.4 v 11.4 c 0,0.9 0.7,1.6 1.6,1.6 h 1.7 c 0.9,0 1.6,-0.7 1.6,-1.6 V 71.8 61.1 55 H 29 v 10 c 0,0.9 0.7,1.6 1.6,1.6 h 0.1 c 0.9,0 1.6,-0.7 1.6,-1.6 V 52.7 c 0,-3.3 -2.7,-5.9 -6,-5.9 z m -4.5,-0.7 c 2.8,0 5.1,-2.3 5.1,-5.1 0,-2.8 -2.3,-5.1 -5.1,-5.1 -2.8,0 -5.1,2.3 -5.1,5.1 0,2.8 2.3,5.1 5.1,5.1 z m 27.7,6.2 h -9.1 c -3.3,0 -6,2.7 -6,6 v 12.4 c 0,0.9 0.7,1.6 1.6,1.6 h 0.1 c 0.9,0 1.6,-0.7 1.6,-1.6 v -10 h 0.6 v 6.1 10.7 8.4 c 0,0.9 0.7,1.6 1.6,1.6 h 1.7 c 0.9,0 1.6,-0.7 1.6,-1.6 V 74.4 h 3.4 v 11.4 c 0,0.9 0.7,1.6 1.6,1.6 H 50 c 0.9,0 1.6,-0.7 1.6,-1.6 V 77.4 66.6 60.5 h 0.6 v 10 c 0,0.9 0.7,1.6 1.6,1.6 h 0.1 c 0.9,0 1.6,-0.7 1.6,-1.6 V 58.2 c 0,-3.2 -2.7,-5.9 -6,-5.9 z M 45,51.6 c 2.8,0 5.1,-2.3 5.1,-5.1 0,-2.8 -2.3,-5.1 -5.1,-5.1 -2.8,0 -5.1,2.3 -5.1,5.1 0,2.8 2.3,5.1 5.1,5.1 z m 27.7,-4.8 h -9.1 c -3.3,0 -6,2.7 -6,6 v 12.4 c 0,0.9 0.7,1.6 1.6,1.6 h 0.1 c 0.9,0 1.6,-0.7 1.6,-1.6 v -10 h 0.6 v 6.1 10.7 8.4 c 0,0.9 0.7,1.6 1.6,1.6 h 1.7 c 0.9,0 1.6,-0.7 1.6,-1.6 V 68.8 h 3.4 v 11.4 c 0,0.9 0.7,1.6 1.6,1.6 h 1.7 c 0.9,0 1.6,-0.7 1.6,-1.6 V 71.8 61.1 55 h 0.6 v 10 c 0,0.9 0.7,1.6 1.6,1.6 H 77 c 0.9,0 1.6,-0.7 1.6,-1.6 V 52.7 C 78.7,49.4 76,46.8 72.7,46.8 Z m -4.5,-0.7 c 2.8,0 5.1,-2.3 5.1,-5.1 0,-2.8 -2.3,-5.1 -5.1,-5.1 -2.8,0 -5.1,2.3 -5.1,5.1 0,2.8 2.3,5.1 5.1,5.1 z"
     id="path2"
     inkscape:connector-curvature="0"
     style="fill:#efe1b8;fill-opacity:1" /></svg>