<?xml version="1.0" encoding="UTF-8" standalone="no"?>
<svg
   xmlns:dc="http://purl.org/dc/elements/1.1/"
   xmlns:cc="http://creativecommons.org/ns#"
   xmlns:rdf="http://www.w3.org/1999/02/22-rdf-syntax-ns#"
   xmlns:svg="http://www.w3.org/2000/svg"
   xmlns="http://www.w3.org/2000/svg"
   xmlns:sodipodi="http://sodipodi.sourceforge.net/DTD/sodipodi-0.dtd"
   xmlns:inkscape="http://www.inkscape.org/namespaces/inkscape"
   viewBox="0 0 46 91"
   version="1.1"
   x="0px"
   y="0px"
   id="svg10"
   sodipodi:docname="noun_ice_breaker.svg"
   width="46"
   height="91"
   inkscape:version="0.92.1 r15371">
  <metadata
     id="metadata16">
    <rdf:RDF>
      <cc:Work
         rdf:about="">
        <dc:format>image/svg+xml</dc:format>
        <dc:type
           rdf:resource="http://purl.org/dc/dcmitype/StillImage" />
        <dc:title />
      </cc:Work>
    </rdf:RDF>
  </metadata>
  <defs
     id="defs14" />
  <sodipodi:namedview
     pagecolor="#ffffff"
     bordercolor="#666666"
     borderopacity="1"
     objecttolerance="10"
     gridtolerance="10"
     guidetolerance="10"
     inkscape:pageopacity="0"
     inkscape:pageshadow="2"
     inkscape:window-width="1858"
     inkscape:window-height="1057"
     id="namedview12"
     showgrid="false"
     inkscape:zoom="1.888"
     inkscape:cx="-115.25424"
     inkscape:cy="62.5"
     inkscape:window-x="54"
     inkscape:window-y="-8"
     inkscape:window-maximized="1"
     inkscape:current-layer="svg10" />
  <g
     transform="translate(-27,-956.3622)"
     id="g4"
     style="fill:#efe1b8;fill-opacity:1">
    <path
       style="color:#000000;font-style:normal;font-variant:normal;font-weight:normal;font-stretch:normal;font-size:medium;line-height:normal;font-family:sans-serif;text-indent:0;text-align:start;text-decoration:none;text-decoration-line:none;text-decoration-style:solid;text-decoration-color:#000000;letter-spacing:normal;word-spacing:normal;text-transform:none;writing-mode:lr-tb;direction:ltr;baseline-shift:baseline;text-anchor:start;white-space:normal;clip-rule:nonzero;display:inline;overflow:visible;visibility:visible;opacity:1;isolation:auto;mix-blend-mode:normal;color-interpolation:sRGB;color-interpolation-filters:linearRGB;solid-color:#000000;solid-opacity:1;fill-opacity:1;fill-rule:evenodd;stroke:none;stroke-width:30;stroke-linecap:butt;stroke-linejoin:round;stroke-miterlimit:4;stroke-dasharray:none;stroke-dashoffset:0;stroke-opacity:1;color-rendering:auto;image-rendering:auto;shape-rendering:auto;text-rendering:auto;enable-background:accumulate;fill:#efe1b8"
       d="m 64.233727,957.36216 -4.245226,15.8438 h -9.988385 -21.06217 a 1.741899,1.741899 0 0 0 -1.738102,1.8558 l 4.074232,61.99234 c 0.222615,3.3867 0.675615,6.0363 2.528453,7.9053 1.852835,1.869 4.619319,2.4028 8.478889,2.4028 h 15.437397 c 3.859569,0 6.626055,-0.5338 8.47889,-2.4028 1.852834,-1.869 2.305833,-4.5186 2.528449,-7.9053 l 4.074002,-61.99234 a 1.741899,1.741899 0 0 0 -1.737868,-1.8558 h -7.467419 l 4.003699,-14.9421 z m -33.435897,19.3273 h 19.202286 9.054928 l -3.951084,14.7457 c -0.442601,-0.086 -0.877229,-0.1821 -1.300171,-0.2878 -1.319763,-0.3299 -2.546222,-0.7393 -3.766706,-1.1469 -1.220253,-0.4076 -2.443037,-0.8157 -3.755368,-1.1439 -1.312796,-0.328 -2.725638,-0.5756 -4.191705,-0.6425 -0.189848,-0.01 -0.380052,-0.014 -0.570597,-0.017 -1.333349,-0.017 -2.675271,0.1155 -3.885769,0.3876 -1.235116,0.2775 -2.330818,0.7001 -3.172071,1.2165 l 2.887225,43.93144 0.0043,0.067 h 2.33e-4 c 0.478451,7.2789 0.50232,7.283 7.844338,7.283 h 9.604887 c 7.342018,0 7.365885,0 7.844338,-7.283 h 2.33e-4 l 0.0043,-0.067 2.852755,-43.40754 c -0.823023,0.4636 -1.84549,0.8391 -2.982023,1.0947 -1.220962,0.2743 -2.5705,0.4083 -3.912531,0.3914 l 4.051778,-15.1219 h 6.540767 l -3.951992,60.13624 c -0.207358,3.1546 -0.697552,4.8453 -1.526277,5.6812 -0.828726,0.836 -2.481958,1.3719 -6.005096,1.3719 H 42.281411 c -3.523137,0 -5.17637,-0.5359 -6.005095,-1.3719 -0.828725,-0.8359 -1.319146,-2.5266 -1.526504,-5.6812 l -3.951985,-60.13624 z m 13.141855,15.2244 c 0.475092,-10e-5 0.950191,0.1821 1.314231,0.5461 l 4.392866,4.3929 c 0.728081,0.7281 0.728081,1.9004 0,2.6284 l -4.392866,4.39294 c -0.72808,0.7281 -1.900381,0.7281 -2.628463,0 l -4.392865,-4.39294 c -0.72808,-0.728 -0.72808,-1.9003 0,-2.6284 l 4.392865,-4.3929 c 0.364042,-0.364 0.839139,-0.5461 1.314232,-0.5461 z m 10.501149,8.58144 c 0.299471,0.01 0.6015,0.089 0.880161,0.2499 l 5.380297,3.1063 c 0.891714,0.5148 1.194965,1.6472 0.680135,2.5389 l -3.106076,5.3803 c -0.514831,0.8917 -1.647168,1.1952 -2.538881,0.6804 l -5.380298,-3.1064 c -0.891713,-0.5148 -1.195192,-1.6471 -0.680361,-2.5388 l 3.106303,-5.3803 c 0.353946,-0.6131 0.999886,-0.9481 1.65872,-0.9303 z m -7.495993,11.8786 c 0.658834,-0.018 1.304774,0.3173 1.658721,0.9303 l 3.106302,5.3803 c 0.514831,0.8917 0.211353,2.0241 -0.680361,2.5389 l -5.380297,3.1061 c -0.891713,0.5148 -2.02405,0.2116 -2.538882,-0.6802 l -3.106076,-5.3802 c -0.514831,-0.8918 -0.211579,-2.0241 0.680136,-2.5389 l 5.380296,-3.1063 c 0.278661,-0.1609 0.580691,-0.2419 0.880161,-0.25 z"
       id="path2"
       inkscape:connector-curvature="0" />
  </g>
</svg>
