<?xml version="1.0" encoding="UTF-8" standalone="no"?>
<svg
   xmlns:dc="http://purl.org/dc/elements/1.1/"
   xmlns:cc="http://creativecommons.org/ns#"
   xmlns:rdf="http://www.w3.org/1999/02/22-rdf-syntax-ns#"
   xmlns:svg="http://www.w3.org/2000/svg"
   xmlns="http://www.w3.org/2000/svg"
   xmlns:sodipodi="http://sodipodi.sourceforge.net/DTD/sodipodi-0.dtd"
   xmlns:inkscape="http://www.inkscape.org/namespaces/inkscape"
   version="1.1"
   x="0px"
   y="0px"
   viewBox="0 0 65 50"
   enable-background="new 0 0 100 100"
   xml:space="preserve"
   id="svg14"
   sodipodi:docname="noun_hamburger.svg"
   width="65"
   height="50"
   inkscape:version="0.92.1 r15371"><metadata
     id="metadata20"><rdf:RDF><cc:Work
         rdf:about=""><dc:format>image/svg+xml</dc:format><dc:type
           rdf:resource="http://purl.org/dc/dcmitype/StillImage" /><dc:title /></cc:Work></rdf:RDF></metadata><defs
     id="defs18" /><sodipodi:namedview
     pagecolor="#ffffff"
     bordercolor="#666666"
     borderopacity="1"
     objecttolerance="10"
     gridtolerance="10"
     guidetolerance="10"
     inkscape:pageopacity="0"
     inkscape:pageshadow="2"
     inkscape:window-width="1858"
     inkscape:window-height="1057"
     id="namedview16"
     showgrid="false"
     inkscape:zoom="1.888"
     inkscape:cx="-101.48305"
     inkscape:cy="62.5"
     inkscape:window-x="54"
     inkscape:window-y="-8"
     inkscape:window-maximized="1"
     inkscape:current-layer="svg14" /><g
     id="g8"
     transform="translate(-17.5,-24)"
     style="fill:#efe1b8;fill-opacity:1"><path
       d="m 22,34 h 56 c 2.2,0 4,-1.8 4,-4 0,-2.2 -1.8,-4 -4,-4 H 22 c -2.2,0 -4,1.8 -4,4 0,2.2 1.8,4 4,4 z"
       id="path2"
       inkscape:connector-curvature="0"
       style="fill:#efe1b8;fill-opacity:1" /><path
       d="M 78,46 H 22 c -2.2,0 -4,1.8 -4,4 0,2.2 1.8,4 4,4 h 56 c 2.2,0 4,-1.8 4,-4 0,-2.2 -1.8,-4 -4,-4 z"
       id="path4"
       inkscape:connector-curvature="0"
       style="fill:#efe1b8;fill-opacity:1" /><path
       d="M 78,66 H 22 c -2.2,0 -4,1.8 -4,4 0,2.2 1.8,4 4,4 h 56 c 2.2,0 4,-1.8 4,-4 0,-2.2 -1.8,-4 -4,-4 z"
       id="path6"
       inkscape:connector-curvature="0"
       style="fill:#efe1b8;fill-opacity:1" /></g></svg>