<?xml version="1.0" encoding="UTF-8" standalone="no"?>
<svg
   xmlns:dc="http://purl.org/dc/elements/1.1/"
   xmlns:cc="http://creativecommons.org/ns#"
   xmlns:rdf="http://www.w3.org/1999/02/22-rdf-syntax-ns#"
   xmlns:svg="http://www.w3.org/2000/svg"
   xmlns="http://www.w3.org/2000/svg"
   xmlns:sodipodi="http://sodipodi.sourceforge.net/DTD/sodipodi-0.dtd"
   xmlns:inkscape="http://www.inkscape.org/namespaces/inkscape"
   version="1.1"
   x="0px"
   y="0px"
   viewBox="0 0 50 88"
   enable-background="new 0 0 100 100"
   xml:space="preserve"
   id="svg42"
   sodipodi:docname="noun_booth.svg"
   inkscape:version="0.92.1 r15371"
   width="50"
   height="88"><metadata
     id="metadata48"><rdf:RDF><cc:Work
         rdf:about=""><dc:format>image/svg+xml</dc:format><dc:type
           rdf:resource="http://purl.org/dc/dcmitype/StillImage" /><dc:title /></cc:Work></rdf:RDF></metadata><defs
     id="defs46" /><sodipodi:namedview
     pagecolor="#ffffff"
     bordercolor="#666666"
     borderopacity="1"
     objecttolerance="10"
     gridtolerance="10"
     guidetolerance="10"
     inkscape:pageopacity="0"
     inkscape:pageshadow="2"
     inkscape:window-width="1858"
     inkscape:window-height="1057"
     id="namedview44"
     showgrid="false"
     inkscape:zoom="2.6700352"
     inkscape:cx="-11.297982"
     inkscape:cy="93.505721"
     inkscape:window-x="54"
     inkscape:window-y="-8"
     inkscape:window-maximized="1"
     inkscape:current-layer="svg42" /><g
     id="g4544"
     transform="translate(-25.489,-5.749998)"
     style="fill:#efe1b8;fill-opacity:1"><circle
       id="circle2"
       r="6.1669998"
       cy="28.955"
       cx="50.021"
       style="fill:#efe1b8;fill-opacity:1" /><path
       id="path4"
       d="m 56.385,65.296 v -5.421 c 0.007,-0.126 0.019,-0.254 0.019,-0.382 V 43.586 c 0.389,0.586 0.646,1.284 0.646,2.122 v 12.624 c 0,1.122 0.908,2.032 2.031,2.032 1.123,0 2.031,-0.91 2.031,-2.032 V 45.708 c 0,-5.588 -5.339,-8.157 -8.305,-8.778 -0.843,-0.41 -1.786,-0.647 -2.788,-0.647 -0.999,0 -1.94,0.236 -2.781,0.644 -2.964,0.616 -8.318,3.185 -8.318,8.781 v 12.624 c 0,1.122 0.909,2.032 2.031,2.032 1.122,0 2.031,-0.91 2.031,-2.032 V 45.708 c 0,-0.844 0.26,-1.544 0.653,-2.133 v 15.07 c 0,0.01 -0.003,0.021 -0.003,0.03 v 6.621 z"
       inkscape:connector-curvature="0"
       style="fill:#efe1b8;fill-opacity:1" /><g
       id="g10"
       style="fill:#efe1b8;fill-opacity:1"><line
         id="line6"
         y2="65.072998"
         x2="72.455002"
         y1="18.431999"
         x1="72.455002"
         style="fill:#efe1b8;fill-opacity:1" /><rect
         id="rect8"
         height="46.640999"
         width="2.0439999"
         y="18.431999"
         x="71.432999"
         style="fill:#efe1b8;fill-opacity:1" /></g><g
       id="g16"
       style="fill:#efe1b8;fill-opacity:1"><line
         id="line12"
         y2="65.072998"
         x2="69.967003"
         y1="18.431999"
         x1="69.967003"
         style="fill:#efe1b8;fill-opacity:1" /><rect
         id="rect14"
         height="46.640999"
         width="1.008"
         y="18.431999"
         x="69.981003"
         style="fill:#efe1b8;fill-opacity:1" /></g><g
       id="g22"
       style="fill:#efe1b8;fill-opacity:1"><line
         id="line18"
         y2="65.414001"
         x2="28.503"
         y1="18.431999"
         x1="28.503"
         style="fill:#efe1b8;fill-opacity:1" /><rect
         id="rect20"
         height="46.981998"
         width="2.0439999"
         y="18.431999"
         x="27.48"
         style="fill:#efe1b8;fill-opacity:1" /></g><g
       id="g28"
       style="fill:#efe1b8;fill-opacity:1"><line
         id="line24"
         y2="65.414001"
         x2="30.919001"
         y1="18.431999"
         x1="30.919001"
         style="fill:#efe1b8;fill-opacity:1" /><rect
         id="rect26"
         height="46.981998"
         width="1.008"
         y="18.431999"
         x="29.896999"
         style="fill:#efe1b8;fill-opacity:1" /></g><path
       sodipodi:nodetypes="ccccc"
       inkscape:connector-curvature="0"
       id="path30"
       d="M 74.499,19.018 71.656,8.151 H 28.587 L 26,19.018 c 19.637285,0.326382 32.352824,0.353983 48.499,0 z"
       style="fill:#efe1b8;fill-opacity:1" /><g
       id="g34"
       style="fill:#efe1b8;fill-opacity:1"><rect
         id="rect32"
         height="1.022"
         width="42.845001"
         y="6.6929998"
         x="28.629999"
         style="fill:#efe1b8;fill-opacity:1" /></g><rect
       id="rect36"
       height="30.865999"
       width="48.722"
       y="62.883999"
       x="26.256001"
       style="fill:#efe1b8;fill-opacity:1" /></g></svg>