<?xml version="1.0" encoding="UTF-8" standalone="no"?>
<svg
   xmlns:dc="http://purl.org/dc/elements/1.1/"
   xmlns:cc="http://creativecommons.org/ns#"
   xmlns:rdf="http://www.w3.org/1999/02/22-rdf-syntax-ns#"
   xmlns:svg="http://www.w3.org/2000/svg"
   xmlns="http://www.w3.org/2000/svg"
   xmlns:sodipodi="http://sodipodi.sourceforge.net/DTD/sodipodi-0.dtd"
   xmlns:inkscape="http://www.inkscape.org/namespaces/inkscape"
   version="1.1"
   x="0px"
   y="0px"
   viewBox="0 0 79.999999 78"
   enable-background="new 0 0 72 72"
   xml:space="preserve"
   id="svg26"
   sodipodi:docname="noun_team_programming.svg"
   width="80"
   height="78"
   inkscape:version="0.92.1 r15371"><metadata
     id="metadata32"><rdf:RDF><cc:Work
         rdf:about=""><dc:format>image/svg+xml</dc:format><dc:type
           rdf:resource="http://purl.org/dc/dcmitype/StillImage" /><dc:title></dc:title></cc:Work></rdf:RDF></metadata><defs
     id="defs30" /><sodipodi:namedview
     pagecolor="#ffffff"
     bordercolor="#666666"
     borderopacity="1"
     objecttolerance="10"
     gridtolerance="10"
     guidetolerance="10"
     inkscape:pageopacity="0"
     inkscape:pageshadow="2"
     inkscape:window-width="1858"
     inkscape:window-height="1057"
     id="namedview28"
     showgrid="false"
     fit-margin-top="0"
     fit-margin-left="0"
     fit-margin-right="0"
     fit-margin-bottom="0"
     inkscape:zoom="5.2444444"
     inkscape:cx="1.163251"
     inkscape:cy="29.224246"
     inkscape:window-x="54"
     inkscape:window-y="-8"
     inkscape:window-maximized="1"
     inkscape:current-layer="svg26" /><g
     id="g20"
     style="fill:#efe1b8"
     transform="translate(4,8)"><g
       id="g16"
       style="fill:#efe1b8"><g
         id="g10"
         style="fill:#efe1b8"><g
           id="g4"
           style="fill:#efe1b8"><path
             d="m 49.7,41.2 c -0.7,0 -1.4,-0.3 -1.8,-0.8 -0.8,-1 -0.7,-2.5 0.2,-3.4 l 5.7,-5.7 c 0.5,-0.5 0.5,-1.3 0,-1.8 l -5.7,-5.7 c -0.9,-0.9 -1.1,-2.3 -0.3,-3.3 0.9,-1.1 2.6,-1.2 3.6,-0.2 l 8.5,8.5 c 0.5,0.5 0.7,1.1 0.7,1.7 0,0.6 -0.3,1.3 -0.7,1.7 l -8.5,8.5 C 51,41 50.3,41.2 49.7,41.2 Z"
             id="path2"
             style="fill:#efe1b8"
             inkscape:connector-curvature="0" /></g><g
           id="g8"
           style="fill:#efe1b8"><path
             d="m 22.3,41.2 c -0.6,0 -1.2,-0.2 -1.7,-0.7 L 12.1,32 c -0.5,-0.5 -0.7,-1.1 -0.7,-1.7 0,-0.6 0.3,-1.3 0.7,-1.7 l 8.4,-8.4 c 0.9,-0.9 2.4,-1.1 3.3,-0.3 1.1,0.9 1.2,2.6 0.2,3.6 l -5.8,5.8 c -0.5,0.5 -0.5,1.3 0,1.8 l 5.7,5.7 c 0.9,0.9 1.1,2.4 0.2,3.4 -0.5,0.7 -1.2,1 -1.8,1 z"
             id="path6"
             style="fill:#efe1b8"
             inkscape:connector-curvature="0" /></g></g><g
         id="g14"
         style="fill:#efe1b8"><path
           d="m 30.9,47 c -0.3,0 -0.5,0 -0.8,-0.1 -1.3,-0.4 -1.9,-1.8 -1.5,-3.1 L 38.8,15.3 c 0.4,-1.3 1.8,-1.9 3.1,-1.5 1.3,0.4 1.9,1.8 1.5,3.1 L 33.2,45.4 c -0.4,1 -1.3,1.6 -2.3,1.6 z"
           id="path12"
           style="fill:#efe1b8"
           inkscape:connector-curvature="0" /></g></g><path
       d="M 63.7,2 H 8.3 C 4.1,2 0.7,5.4 0.7,9.6 v 39.8 c 0,4.2 3.4,7.6 7.6,7.6 h 22 c 0.4,0 0.7,0.3 0.7,0.7 v 3.6 c 0,0.3 -0.2,0.6 -0.6,0.7 -4.5,0.7 -7.7,2.1 -7.7,3.8 0,2.3 6,4.2 13.3,4.2 7.3,0 13.3,-1.9 13.3,-4.2 0,-1.7 -3.2,-3.2 -7.7,-3.8 C 41.3,62 41,61.7 41,61.3 V 57.7 C 41,57.3 41.3,57 41.7,57 h 22 c 4.2,0 7.6,-3.4 7.6,-7.6 V 9.6 C 71.3,5.4 67.9,2 63.7,2 Z m 2.7,47.4 c 0,1.5 -1.2,2.7 -2.7,2.7 H 8.3 C 6.8,52.1 5.6,50.9 5.6,49.4 V 9.6 C 5.6,8.1 6.8,6.9 8.3,6.9 h 55.4 c 1.5,0 2.7,1.2 2.7,2.7 z"
       id="path18"
       style="fill:#efe1b8"
       inkscape:connector-curvature="0" /></g></svg>