<?xml version="1.0" encoding="UTF-8" standalone="no"?>
<svg
   xmlns:dc="http://purl.org/dc/elements/1.1/"
   xmlns:cc="http://creativecommons.org/ns#"
   xmlns:rdf="http://www.w3.org/1999/02/22-rdf-syntax-ns#"
   xmlns:svg="http://www.w3.org/2000/svg"
   xmlns="http://www.w3.org/2000/svg"
   xmlns:sodipodi="http://sodipodi.sourceforge.net/DTD/sodipodi-0.dtd"
   xmlns:inkscape="http://www.inkscape.org/namespaces/inkscape"
   version="1.1"
   x="0px"
   y="0px"
   viewBox="0 0 90 80"
   enable-background="new 0 0 100 100"
   xml:space="preserve"
   id="svg8"
   sodipodi:docname="noun_home.svg"
   width="90"
   height="80"
   inkscape:version="0.92.1 r15371"><metadata
     id="metadata14"><rdf:RDF><cc:Work
         rdf:about=""><dc:format>image/svg+xml</dc:format><dc:type
           rdf:resource="http://purl.org/dc/dcmitype/StillImage" /><dc:title /></cc:Work></rdf:RDF></metadata><defs
     id="defs12" /><sodipodi:namedview
     pagecolor="#ffffff"
     bordercolor="#666666"
     borderopacity="1"
     objecttolerance="10"
     gridtolerance="10"
     guidetolerance="10"
     inkscape:pageopacity="0"
     inkscape:pageshadow="2"
     inkscape:window-width="1858"
     inkscape:window-height="1057"
     id="namedview10"
     showgrid="false"
     inkscape:zoom="3.776"
     inkscape:cx="-61.814079"
     inkscape:cy="39.114052"
     inkscape:window-x="1912"
     inkscape:window-y="-8"
     inkscape:window-maximized="1"
     inkscape:current-layer="svg8" /><path
     d="m 81.335407,43.700903 -8.340794,-7.234869 v -12.03704 c 0,-1.408536 -1.139641,-2.550707 -2.546491,-2.550707 h -5.275056 c -1.408537,0 -2.550707,1.142171 -2.550707,2.550707 v 3.033705 L 47.793534,14.586942 c -1.604096,-1.39252 -3.98453,-1.39252 -5.589469,0 L 8.5374386,43.811327 C 7.195494,44.9771 6.7167097,46.856833 7.3371062,48.525835 c 0.6254542,1.664787 2.2177489,2.769868 3.9938028,2.769868 h 6.454315 V 77.545388 C 17.785224,78.904191 18.886933,80 20.241522,80 H 34.746663 V 60.915221 c 0,-2.697376 2.185717,-4.88478 4.883936,-4.88478 h 10.738929 c 2.697376,0 4.884779,2.187404 4.884779,4.88478 v 19.083936 h 14.497555 c 1.354588,0 2.456298,-1.095809 2.456298,-2.454612 V 51.295703 h 6.4501 0.0084 c 2.354303,0 4.264383,-1.909237 4.264383,-4.265226 0.0016,-1.345316 -0.622925,-2.547335 -1.595667,-3.329574 z"
     id="path2"
     inkscape:connector-curvature="0"
     style="fill:#efe1b8;fill-opacity:1;stroke-width:0.84293008" /></svg>